<mxfile host="65bd71144e">
    <diagram id="lXeVWc8YDZm5grh5temW" name="Page-1">
        <mxGraphModel dx="2130" dy="480" grid="1" gridSize="10" guides="1" tooltips="1" connect="1" arrows="1" fold="1" page="1" pageScale="1" pageWidth="850" pageHeight="1100" math="0" shadow="0">
            <root>
                <mxCell id="0"/>
                <mxCell id="1" parent="0"/>
                <mxCell id="4" value="" style="edgeStyle=none;html=1;" edge="1" parent="1" source="2" target="3">
                    <mxGeometry relative="1" as="geometry"/>
                </mxCell>
                <mxCell id="2" value="Start" style="ellipse;whiteSpace=wrap;html=1;" vertex="1" parent="1">
                    <mxGeometry x="110" y="10" width="120" height="80" as="geometry"/>
                </mxCell>
                <mxCell id="6" value="" style="edgeStyle=none;html=1;" edge="1" parent="1" source="3" target="5">
                    <mxGeometry relative="1" as="geometry"/>
                </mxCell>
                <mxCell id="3" value="list_belanja RECORD ARRAY { id INT, nama_ barang STRING, harga INT, jumlah INT}&lt;br&gt;harga INT&lt;br&gt;jumlah INT&lt;br&gt;sum INT&lt;br&gt;pilih INT&lt;br&gt;size INT&lt;br&gt;nama_barang STRING&lt;br&gt;harga_barang INT&lt;br&gt;jumlah_barang INT&lt;br&gt;" style="shape=hexagon;perimeter=hexagonPerimeter2;whiteSpace=wrap;html=1;fixedSize=1;fillColor=none;" vertex="1" parent="1">
                    <mxGeometry x="-90" y="120" width="520" height="160" as="geometry"/>
                </mxCell>
                <mxCell id="8" value="" style="edgeStyle=none;html=1;" edge="1" parent="1" source="5">
                    <mxGeometry relative="1" as="geometry">
                        <mxPoint x="170" y="420" as="targetPoint"/>
                    </mxGeometry>
                </mxCell>
                <mxCell id="5" value="STORE size = 0&lt;br&gt;STORE pilih = 0&amp;nbsp;" style="rounded=1;whiteSpace=wrap;html=1;fillColor=none;" vertex="1" parent="1">
                    <mxGeometry x="60" y="320" width="220" height="60" as="geometry"/>
                </mxCell>
                <mxCell id="11" value="" style="edgeStyle=none;html=1;" edge="1" parent="1" source="9" target="10">
                    <mxGeometry relative="1" as="geometry"/>
                </mxCell>
                <mxCell id="12" value="TRUE" style="edgeLabel;html=1;align=center;verticalAlign=middle;resizable=0;points=[];" vertex="1" connectable="0" parent="11">
                    <mxGeometry x="-0.2374" y="-1" relative="1" as="geometry">
                        <mxPoint as="offset"/>
                    </mxGeometry>
                </mxCell>
                <mxCell id="92" style="edgeStyle=orthogonalEdgeStyle;html=1;" edge="1" parent="1" source="9" target="90">
                    <mxGeometry relative="1" as="geometry">
                        <Array as="points">
                            <mxPoint x="1210" y="470"/>
                            <mxPoint x="1210" y="2610"/>
                            <mxPoint x="170" y="2610"/>
                        </Array>
                    </mxGeometry>
                </mxCell>
                <mxCell id="9" value="pilih !=2" style="rhombus;whiteSpace=wrap;html=1;fillColor=none;" vertex="1" parent="1">
                    <mxGeometry x="125" y="420" width="90" height="100" as="geometry"/>
                </mxCell>
                <mxCell id="14" value="" style="edgeStyle=none;html=1;" edge="1" parent="1" source="10" target="13">
                    <mxGeometry relative="1" as="geometry"/>
                </mxCell>
                <mxCell id="10" value="OUTPUT&lt;br&gt;&quot;LIST BARANG YANG DIBELI&quot;" style="rounded=1;whiteSpace=wrap;html=1;fillColor=none;" vertex="1" parent="1">
                    <mxGeometry x="110" y="600" width="120" height="60" as="geometry"/>
                </mxCell>
                <mxCell id="18" value="" style="edgeStyle=none;html=1;" edge="1" parent="1" source="13" target="17">
                    <mxGeometry relative="1" as="geometry"/>
                </mxCell>
                <mxCell id="19" value="TRUE" style="edgeLabel;html=1;align=center;verticalAlign=middle;resizable=0;points=[];" vertex="1" connectable="0" parent="18">
                    <mxGeometry x="-0.2475" y="-1" relative="1" as="geometry">
                        <mxPoint x="1" y="-1" as="offset"/>
                    </mxGeometry>
                </mxCell>
                <mxCell id="21" value="" style="edgeStyle=none;html=1;" edge="1" parent="1" source="13" target="20">
                    <mxGeometry relative="1" as="geometry"/>
                </mxCell>
                <mxCell id="22" value="FALSE" style="edgeLabel;html=1;align=center;verticalAlign=middle;resizable=0;points=[];" vertex="1" connectable="0" parent="21">
                    <mxGeometry x="-0.4252" relative="1" as="geometry">
                        <mxPoint y="13" as="offset"/>
                    </mxGeometry>
                </mxCell>
                <mxCell id="13" value="size==0" style="rhombus;whiteSpace=wrap;html=1;fillColor=none;" vertex="1" parent="1">
                    <mxGeometry x="130" y="700" width="80" height="80" as="geometry"/>
                </mxCell>
                <mxCell id="32" style="html=1;edgeStyle=orthogonalEdgeStyle;" edge="1" parent="1" source="17">
                    <mxGeometry relative="1" as="geometry">
                        <mxPoint x="170" y="1190" as="targetPoint"/>
                        <Array as="points">
                            <mxPoint x="380" y="1190"/>
                        </Array>
                    </mxGeometry>
                </mxCell>
                <mxCell id="17" value="OUTPUT&amp;nbsp;&lt;br&gt;&quot;LIST BARANG YANG DIBELI&quot;" style="rounded=1;whiteSpace=wrap;html=1;fillColor=none;" vertex="1" parent="1">
                    <mxGeometry x="290" y="710" width="120" height="60" as="geometry"/>
                </mxCell>
                <mxCell id="24" value="" style="edgeStyle=none;html=1;" edge="1" parent="1" source="20" target="23">
                    <mxGeometry relative="1" as="geometry"/>
                </mxCell>
                <mxCell id="31" style="edgeStyle=orthogonalEdgeStyle;html=1;" edge="1" parent="1" source="20" target="29">
                    <mxGeometry relative="1" as="geometry">
                        <Array as="points">
                            <mxPoint x="330" y="860"/>
                            <mxPoint x="330" y="1180"/>
                            <mxPoint x="165" y="1180"/>
                        </Array>
                    </mxGeometry>
                </mxCell>
                <mxCell id="20" value="FOR i FROM &quot;0&quot; IN RANGE list_belanja" style="shape=hexagon;perimeter=hexagonPerimeter2;whiteSpace=wrap;html=1;fixedSize=1;fillColor=none;strokeWidth=1;perimeterSpacing=0;" vertex="1" parent="1">
                    <mxGeometry x="40" y="840" width="260" height="40" as="geometry"/>
                </mxCell>
                <mxCell id="26" value="" style="edgeStyle=none;html=1;" edge="1" parent="1" source="23" target="25">
                    <mxGeometry relative="1" as="geometry"/>
                </mxCell>
                <mxCell id="23" value="OUTPUT list_belanja[i].id&lt;br&gt;OUTPUT list_belanja[i].nama_barang&lt;br&gt;OUTPUT list_belanja[i].harga_barang&lt;br&gt;OUTPUT list_belanja[i].jumlah_barang" style="rounded=1;whiteSpace=wrap;html=1;fillColor=none;strokeWidth=1;" vertex="1" parent="1">
                    <mxGeometry x="50" y="920" width="240" height="100" as="geometry"/>
                </mxCell>
                <mxCell id="27" style="edgeStyle=orthogonalEdgeStyle;html=1;entryX=0;entryY=0.5;entryDx=0;entryDy=0;" edge="1" parent="1" source="25" target="20">
                    <mxGeometry relative="1" as="geometry">
                        <Array as="points">
                            <mxPoint y="1100"/>
                            <mxPoint y="860"/>
                        </Array>
                    </mxGeometry>
                </mxCell>
                <mxCell id="25" value="" style="ellipse;whiteSpace=wrap;html=1;aspect=fixed;strokeWidth=1;fillColor=none;" vertex="1" parent="1">
                    <mxGeometry x="130" y="1070" width="80" height="80" as="geometry"/>
                </mxCell>
                <mxCell id="34" value="" style="edgeStyle=orthogonalEdgeStyle;html=1;" edge="1" parent="1" source="29" target="33">
                    <mxGeometry relative="1" as="geometry"/>
                </mxCell>
                <mxCell id="29" value="OUTPUT &quot;MENU KASIR&quot;&lt;br&gt;OUTPUT &quot;1.Input Barang&quot;&lt;br&gt;OUTPUT &quot;2. Bayar Barang&quot;" style="rounded=1;whiteSpace=wrap;html=1;strokeWidth=1;fillColor=none;" vertex="1" parent="1">
                    <mxGeometry x="85" y="1210" width="170" height="60" as="geometry"/>
                </mxCell>
                <mxCell id="36" value="" style="edgeStyle=orthogonalEdgeStyle;html=1;" edge="1" parent="1" source="33" target="35">
                    <mxGeometry relative="1" as="geometry"/>
                </mxCell>
                <mxCell id="33" value="INPUT pilih" style="shape=parallelogram;perimeter=parallelogramPerimeter;whiteSpace=wrap;html=1;fixedSize=1;fillColor=none;rounded=1;strokeWidth=1;" vertex="1" parent="1">
                    <mxGeometry x="110" y="1330" width="120" height="60" as="geometry"/>
                </mxCell>
                <mxCell id="38" value="TRUE" style="edgeStyle=orthogonalEdgeStyle;html=1;entryX=0;entryY=0.5;entryDx=0;entryDy=0;" edge="1" parent="1" source="35" target="40">
                    <mxGeometry relative="1" as="geometry">
                        <mxPoint x="265" y="1485" as="targetPoint"/>
                    </mxGeometry>
                </mxCell>
                <mxCell id="46" value="FALSE" style="edgeStyle=orthogonalEdgeStyle;html=1;" edge="1" parent="1" source="35" target="45">
                    <mxGeometry relative="1" as="geometry"/>
                </mxCell>
                <mxCell id="35" value="pilih == 1" style="rhombus;whiteSpace=wrap;html=1;strokeWidth=1;fillColor=none;" vertex="1" parent="1">
                    <mxGeometry x="120" y="1440" width="100" height="90" as="geometry"/>
                </mxCell>
                <mxCell id="42" value="" style="edgeStyle=orthogonalEdgeStyle;html=1;" edge="1" parent="1" source="40" target="41">
                    <mxGeometry relative="1" as="geometry"/>
                </mxCell>
                <mxCell id="40" value="INPUT nama_barang&lt;br&gt;INPUT harga_barang&lt;br&gt;INPUT jumlah_barang" style="shape=parallelogram;perimeter=parallelogramPerimeter;whiteSpace=wrap;html=1;fixedSize=1;fillColor=none;rounded=1;strokeWidth=1;" vertex="1" parent="1">
                    <mxGeometry x="290" y="1455" width="165" height="60" as="geometry"/>
                </mxCell>
                <mxCell id="85" style="edgeStyle=orthogonalEdgeStyle;html=1;" edge="1" parent="1" source="41">
                    <mxGeometry relative="1" as="geometry">
                        <mxPoint x="170" y="2470" as="targetPoint"/>
                        <Array as="points">
                            <mxPoint x="1160" y="1485"/>
                            <mxPoint x="1160" y="2470"/>
                            <mxPoint x="170" y="2470"/>
                        </Array>
                    </mxGeometry>
                </mxCell>
                <mxCell id="41" value="list_belanja[size].id = size+1&lt;br&gt;list_belanja[size].nama_barang = nama_barang&lt;br&gt;list_belanja[size].harga_barang = harga_barang&lt;br&gt;list_belanja[size].jumlah_barang = jumlah_barang" style="rounded=1;whiteSpace=wrap;html=1;fillColor=none;strokeWidth=1;" vertex="1" parent="1">
                    <mxGeometry x="500" y="1442.5" width="290" height="85" as="geometry"/>
                </mxCell>
                <mxCell id="48" value="TRUE" style="edgeStyle=orthogonalEdgeStyle;html=1;" edge="1" parent="1" source="45" target="47">
                    <mxGeometry relative="1" as="geometry"/>
                </mxCell>
                <mxCell id="78" value="" style="edgeStyle=orthogonalEdgeStyle;html=1;" edge="1" parent="1" source="45" target="80">
                    <mxGeometry relative="1" as="geometry">
                        <mxPoint x="170" y="1775" as="targetPoint"/>
                    </mxGeometry>
                </mxCell>
                <mxCell id="81" value="FALSE" style="edgeLabel;html=1;align=center;verticalAlign=middle;resizable=0;points=[];" vertex="1" connectable="0" parent="78">
                    <mxGeometry x="0.1946" y="-2" relative="1" as="geometry">
                        <mxPoint y="-45" as="offset"/>
                    </mxGeometry>
                </mxCell>
                <mxCell id="45" value="pilih == 2" style="rhombus;whiteSpace=wrap;html=1;strokeWidth=1;fillColor=none;" vertex="1" parent="1">
                    <mxGeometry x="120" y="1590" width="100" height="90" as="geometry"/>
                </mxCell>
                <mxCell id="50" value="" style="edgeStyle=orthogonalEdgeStyle;html=1;" edge="1" parent="1" source="47" target="49">
                    <mxGeometry relative="1" as="geometry"/>
                </mxCell>
                <mxCell id="47" value="OUTPUT &quot;Total Harga : &quot;" style="rounded=1;whiteSpace=wrap;html=1;fillColor=none;strokeWidth=1;" vertex="1" parent="1">
                    <mxGeometry x="280" y="1612.5" width="150" height="45" as="geometry"/>
                </mxCell>
                <mxCell id="52" value="" style="edgeStyle=orthogonalEdgeStyle;html=1;" edge="1" parent="1" source="49" target="51">
                    <mxGeometry relative="1" as="geometry"/>
                </mxCell>
                <mxCell id="49" value="sum = 0" style="rounded=1;whiteSpace=wrap;html=1;fillColor=none;strokeWidth=1;" vertex="1" parent="1">
                    <mxGeometry x="480" y="1617.5" width="70" height="35" as="geometry"/>
                </mxCell>
                <mxCell id="54" value="TRUE" style="edgeStyle=orthogonalEdgeStyle;html=1;" edge="1" parent="1" source="51" target="53">
                    <mxGeometry relative="1" as="geometry"/>
                </mxCell>
                <mxCell id="56" value="FALSE" style="edgeStyle=orthogonalEdgeStyle;html=1;" edge="1" parent="1" source="51" target="55">
                    <mxGeometry relative="1" as="geometry">
                        <Array as="points">
                            <mxPoint x="515" y="1800"/>
                            <mxPoint x="515" y="1800"/>
                        </Array>
                    </mxGeometry>
                </mxCell>
                <mxCell id="51" value="size == 0&amp;nbsp;" style="rhombus;whiteSpace=wrap;html=1;strokeWidth=1;fillColor=none;" vertex="1" parent="1">
                    <mxGeometry x="475" y="1690" width="80" height="80" as="geometry"/>
                </mxCell>
                <mxCell id="70" style="edgeStyle=orthogonalEdgeStyle;html=1;" edge="1" parent="1" source="53">
                    <mxGeometry relative="1" as="geometry">
                        <mxPoint x="520" y="2190" as="targetPoint"/>
                        <Array as="points">
                            <mxPoint x="790" y="1730"/>
                            <mxPoint x="790" y="2190"/>
                        </Array>
                    </mxGeometry>
                </mxCell>
                <mxCell id="53" value="OUTPUT&amp;nbsp;&lt;br&gt;&quot;Barang Belanja Kosong&quot;" style="rounded=1;whiteSpace=wrap;html=1;fillColor=none;strokeWidth=1;" vertex="1" parent="1">
                    <mxGeometry x="630" y="1700" width="120" height="60" as="geometry"/>
                </mxCell>
                <mxCell id="58" value="" style="edgeStyle=orthogonalEdgeStyle;html=1;" edge="1" parent="1" source="55" target="57">
                    <mxGeometry relative="1" as="geometry"/>
                </mxCell>
                <mxCell id="66" style="edgeStyle=orthogonalEdgeStyle;html=1;entryX=0.5;entryY=0;entryDx=0;entryDy=0;" edge="1" parent="1" source="55" target="64">
                    <mxGeometry relative="1" as="geometry">
                        <Array as="points">
                            <mxPoint x="760" y="1855"/>
                            <mxPoint x="760" y="2170"/>
                            <mxPoint x="515" y="2170"/>
                        </Array>
                    </mxGeometry>
                </mxCell>
                <mxCell id="55" value="FOR i FROM &quot;0&quot; IN RANGE list_belanja" style="shape=hexagon;perimeter=hexagonPerimeter2;whiteSpace=wrap;html=1;fixedSize=1;fillColor=none;strokeWidth=1;" vertex="1" parent="1">
                    <mxGeometry x="370" y="1830" width="290" height="50" as="geometry"/>
                </mxCell>
                <mxCell id="61" value="" style="edgeStyle=orthogonalEdgeStyle;html=1;" edge="1" parent="1" source="57" target="60">
                    <mxGeometry relative="1" as="geometry">
                        <Array as="points">
                            <mxPoint x="515" y="1990"/>
                        </Array>
                    </mxGeometry>
                </mxCell>
                <mxCell id="57" value="STORE sum = sum +&amp;nbsp;&lt;br&gt;(list_belanja[i].harga_barang*list_belanja[i].jumlah_barang" style="rounded=1;whiteSpace=wrap;html=1;fillColor=none;strokeWidth=1;" vertex="1" parent="1">
                    <mxGeometry x="335" y="1940" width="360" height="70" as="geometry"/>
                </mxCell>
                <mxCell id="63" style="edgeStyle=orthogonalEdgeStyle;html=1;entryX=0;entryY=0.5;entryDx=0;entryDy=0;" edge="1" parent="1" source="60" target="55">
                    <mxGeometry relative="1" as="geometry">
                        <Array as="points">
                            <mxPoint x="290" y="2080"/>
                            <mxPoint x="290" y="1855"/>
                        </Array>
                    </mxGeometry>
                </mxCell>
                <mxCell id="60" value="" style="ellipse;whiteSpace=wrap;html=1;aspect=fixed;strokeWidth=1;fillColor=none;" vertex="1" parent="1">
                    <mxGeometry x="475" y="2060" width="80" height="80" as="geometry"/>
                </mxCell>
                <mxCell id="72" value="" style="edgeStyle=orthogonalEdgeStyle;html=1;" edge="1" parent="1" source="64" target="71">
                    <mxGeometry relative="1" as="geometry"/>
                </mxCell>
                <mxCell id="64" value="OUTPUT sum&lt;br&gt;OUTPUT &quot;Konfirmasi Pembayaran (yes/no):&quot;" style="rounded=1;whiteSpace=wrap;html=1;strokeWidth=1;fillColor=none;" vertex="1" parent="1">
                    <mxGeometry x="410" y="2220" width="210" height="60" as="geometry"/>
                </mxCell>
                <mxCell id="74" value="" style="edgeStyle=orthogonalEdgeStyle;html=1;" edge="1" parent="1" source="71" target="73">
                    <mxGeometry relative="1" as="geometry"/>
                </mxCell>
                <mxCell id="71" value="INPUT confirm" style="shape=parallelogram;perimeter=parallelogramPerimeter;whiteSpace=wrap;html=1;fixedSize=1;fillColor=none;rounded=1;strokeWidth=1;" vertex="1" parent="1">
                    <mxGeometry x="690" y="2220" width="120" height="60" as="geometry"/>
                </mxCell>
                <mxCell id="76" value="TRUE" style="edgeStyle=orthogonalEdgeStyle;html=1;" edge="1" parent="1" source="73" target="75">
                    <mxGeometry relative="1" as="geometry">
                        <Array as="points">
                            <mxPoint x="925" y="2310"/>
                            <mxPoint x="925" y="2310"/>
                        </Array>
                    </mxGeometry>
                </mxCell>
                <mxCell id="87" style="edgeStyle=orthogonalEdgeStyle;html=1;" edge="1" parent="1" source="73">
                    <mxGeometry relative="1" as="geometry">
                        <mxPoint x="1150" y="2250" as="targetPoint"/>
                    </mxGeometry>
                </mxCell>
                <mxCell id="88" value="FALSE" style="edgeLabel;html=1;align=center;verticalAlign=middle;resizable=0;points=[];" vertex="1" connectable="0" parent="87">
                    <mxGeometry x="-0.23" y="4" relative="1" as="geometry">
                        <mxPoint x="15" y="4" as="offset"/>
                    </mxGeometry>
                </mxCell>
                <mxCell id="73" value="confirm ==&quot;yes&quot;" style="rhombus;whiteSpace=wrap;html=1;strokeWidth=1;fillColor=none;" vertex="1" parent="1">
                    <mxGeometry x="870" y="2210" width="110" height="80" as="geometry"/>
                </mxCell>
                <mxCell id="86" style="edgeStyle=orthogonalEdgeStyle;html=1;" edge="1" parent="1" source="75">
                    <mxGeometry relative="1" as="geometry">
                        <mxPoint x="925" y="2470" as="targetPoint"/>
                    </mxGeometry>
                </mxCell>
                <mxCell id="75" value="OUTPUT&amp;nbsp;&lt;br&gt;&quot; Terimakasih Telah Berbelanja Di Toko Kami&amp;nbsp;" style="shape=parallelogram;perimeter=parallelogramPerimeter;whiteSpace=wrap;html=1;fixedSize=1;fillColor=none;rounded=1;strokeWidth=1;" vertex="1" parent="1">
                    <mxGeometry x="760" y="2370" width="330" height="60" as="geometry"/>
                </mxCell>
                <mxCell id="82" style="edgeStyle=orthogonalEdgeStyle;html=1;" edge="1" parent="1" source="80" target="83">
                    <mxGeometry relative="1" as="geometry">
                        <mxPoint x="160" y="2441.54296875" as="targetPoint"/>
                    </mxGeometry>
                </mxCell>
                <mxCell id="80" value="OUTPUT&amp;nbsp;&lt;br&gt;&quot;MASUKKAN NOMOR YANG BENAR&quot;" style="shape=parallelogram;perimeter=parallelogramPerimeter;whiteSpace=wrap;html=1;fixedSize=1;fillColor=none;rounded=1;strokeWidth=1;" vertex="1" parent="1">
                    <mxGeometry x="72.5" y="2030" width="195" height="60" as="geometry"/>
                </mxCell>
                <mxCell id="89" style="edgeStyle=orthogonalEdgeStyle;html=1;entryX=0;entryY=0.5;entryDx=0;entryDy=0;" edge="1" parent="1" source="83" target="9">
                    <mxGeometry relative="1" as="geometry">
                        <mxPoint x="100" y="460" as="targetPoint"/>
                        <Array as="points">
                            <mxPoint x="-160" y="2530"/>
                            <mxPoint x="-160" y="470"/>
                        </Array>
                    </mxGeometry>
                </mxCell>
                <mxCell id="83" value="" style="ellipse;whiteSpace=wrap;html=1;aspect=fixed;strokeWidth=1;fillColor=none;" vertex="1" parent="1">
                    <mxGeometry x="130" y="2490.00296875" width="80" height="80" as="geometry"/>
                </mxCell>
                <mxCell id="90" value="END" style="ellipse;whiteSpace=wrap;html=1;strokeWidth=1;fillColor=none;" vertex="1" parent="1">
                    <mxGeometry x="110" y="2640" width="120" height="80" as="geometry"/>
                </mxCell>
            </root>
        </mxGraphModel>
    </diagram>
</mxfile>